<svg xmlns="http://www.w3.org/2000/svg" fill="none" viewBox="4 3 16 18"><g id="letter-n"><g id="outline" filter="url(#filter0_d_1701_1381)"><path d="M4 20C4 20.5523 4.44772 21 5 21H10.2839C10.6794 21 11 20.6794 11 20.2839C11 19.5421 11.9894 19.2898 12.3447 19.9411L12.6696 20.5367C12.8254 20.8223 13.1247 21 13.4501 21H19C19.5523 21 20 20.5523 20 20V4C20 3.44772 19.5523 3 19 3L13.7161 3C13.3206 3 13 3.32059 13 3.71606C13 4.4579 12.0106 4.7102 11.6553 4.05894L11.3304 3.46333C11.1746 3.17771 10.8753 3 10.5499 3L5 3.00001C4.44771 3.00001 4 3.44772 4 4.00001V20Z" fill="white"/></g><path id="icon" fill-rule="evenodd" clip-rule="evenodd" d="M9 9.63249L9 19H6L6 5L9.89045 5L15 14.3675V5L18 5V19H14.1096L9 9.63249Z" fill="#1452CC"/></g><defs><filter id="filter0_d_1701_1381" x="2" y="1.5" width="20" height="22" filterUnits="userSpaceOnUse" color-interpolation-filters="sRGB"><feFlood flood-opacity="0" result="BackgroundImageFix"/><feColorMatrix in="SourceAlpha" type="matrix" values="0 0 0 0 0 0 0 0 0 0 0 0 0 0 0 0 0 0 127 0" result="hardAlpha"/><feOffset dy="0.5"/><feGaussianBlur stdDeviation="1"/><feComposite in2="hardAlpha" operator="out"/><feColorMatrix type="matrix" values="0 0 0 0 0 0 0 0 0 0 0 0 0 0 0 0 0 0 0.25 0"/><feBlend mode="normal" in2="BackgroundImageFix" result="effect1_dropShadow_1701_1381"/><feBlend mode="normal" in="SourceGraphic" in2="effect1_dropShadow_1701_1381" result="shape"/></filter></defs></svg>