<svg xmlns="http://www.w3.org/2000/svg" fill="none" viewBox="2.64 3 18.73 18"><g id="letter-a"><g id="outline" filter="url(#filter0_d_1701_1089)"><path fill-rule="evenodd" clip-rule="evenodd" d="M20.3624 21C21.0377 21 21.5188 20.3445 21.3164 19.7003L16.2894 3.70026C16.1585 3.28353 15.7722 3 15.3354 3H8.66454C8.22772 3 7.84145 3.28353 7.71052 3.70026L2.68362 19.7003C2.48122 20.3445 2.96236 21 3.63764 21H8.88397C9.32092 21 9.70727 20.7163 9.83809 20.2994L10.3398 18.7006C10.4706 18.2837 10.857 18 11.2939 18H12.706C13.143 18 13.5293 18.2837 13.6602 18.7006L14.1619 20.2994C14.2927 20.7163 14.679 21 15.116 21H20.3624Z" fill="white"/></g><path id="icon" fill-rule="evenodd" clip-rule="evenodd" d="M9.39854 5H14.6014L19 19H15.8503L14.9089 16H9.09104L8.14966 19H5L9.39854 5ZM12.3985 8L13.9675 13H10.0324L11.6014 8H12.3985Z" fill="#1452CC"/></g><defs><filter id="filter0_d_1701_1089" x="0.636963" y="1.5" width="22.7261" height="22" filterUnits="userSpaceOnUse" color-interpolation-filters="sRGB"><feFlood flood-opacity="0" result="BackgroundImageFix"/><feColorMatrix in="SourceAlpha" type="matrix" values="0 0 0 0 0 0 0 0 0 0 0 0 0 0 0 0 0 0 127 0" result="hardAlpha"/><feOffset dy="0.5"/><feGaussianBlur stdDeviation="1"/><feComposite in2="hardAlpha" operator="out"/><feColorMatrix type="matrix" values="0 0 0 0 0 0 0 0 0 0 0 0 0 0 0 0 0 0 0.25 0"/><feBlend mode="normal" in2="BackgroundImageFix" result="effect1_dropShadow_1701_1089"/><feBlend mode="normal" in="SourceGraphic" in2="effect1_dropShadow_1701_1089" result="shape"/></filter></defs></svg>