<svg xmlns="http://www.w3.org/2000/svg" fill="none" viewBox="4 3 16 18"><g id="letter-p"><g id="outline" filter="url(#filter0_d_1701_1366)"><path fill-rule="evenodd" clip-rule="evenodd" d="M12.75 3H5C4.44772 3 4 3.44772 4 4V20C4 20.5523 4.44772 21 5 21H10C10.5523 21 11 20.5523 11 20V19C11 18.4477 11.4477 18 12 18H12.75C16.7541 18 20 14.7541 20 10.75V10.25C20 6.24594 16.7541 3 12.75 3Z" fill="white"/></g><path id="icon" fill-rule="evenodd" clip-rule="evenodd" d="M6 5V19H9V16H12.75C15.6495 16 18 13.6495 18 10.75V10.25C18 7.35051 15.6495 5 12.75 5H6ZM15 10.25C15 9.00736 13.9926 8 12.75 8H9V13H12.75C13.9926 13 15 11.9926 15 10.75L15 10.25Z" fill="#1452CC"/></g><defs><filter id="filter0_d_1701_1366" x="2" y="1.5" width="20" height="22" filterUnits="userSpaceOnUse" color-interpolation-filters="sRGB"><feFlood flood-opacity="0" result="BackgroundImageFix"/><feColorMatrix in="SourceAlpha" type="matrix" values="0 0 0 0 0 0 0 0 0 0 0 0 0 0 0 0 0 0 127 0" result="hardAlpha"/><feOffset dy="0.5"/><feGaussianBlur stdDeviation="1"/><feComposite in2="hardAlpha" operator="out"/><feColorMatrix type="matrix" values="0 0 0 0 0 0 0 0 0 0 0 0 0 0 0 0 0 0 0.25 0"/><feBlend mode="normal" in2="BackgroundImageFix" result="effect1_dropShadow_1701_1366"/><feBlend mode="normal" in="SourceGraphic" in2="effect1_dropShadow_1701_1366" result="shape"/></filter></defs></svg>