<svg xmlns="http://www.w3.org/2000/svg" fill="none" viewBox="5 3 15 18"><g id="letter-b"><g id="outline" filter="url(#filter0_d_1701_1352)"><path d="M12.75 3H6C5.44772 3 5 3.44772 5 4V20C5 20.5523 5.44772 21 6 21H13.75C17.2018 21 20 18.2018 20 14.75C20 13.5227 19.6453 12.3776 19.0348 11.4125C18.8665 11.1465 18.8078 10.8241 18.8714 10.5158C18.9557 10.1064 19 9.68297 19 9.25C19 5.79822 16.2018 3 12.75 3Z" fill="white"/></g><path id="icon" fill-rule="evenodd" clip-rule="evenodd" d="M7 5V19H13.75C16.0972 19 18 17.0972 18 14.75C18 13.4052 17.3754 12.2063 16.4005 11.4276C16.7812 10.7907 17 10.0459 17 9.25C17 6.90279 15.0972 5 12.75 5H7ZM13.75 16H10V13.5H13.75C14.4404 13.5 15 14.0596 15 14.75C15 15.4404 14.4404 16 13.75 16ZM12.75 10.5H10V8H12.75C13.4404 8 14 8.55964 14 9.25C14 9.94036 13.4404 10.5 12.75 10.5Z" fill="#1452CC"/></g><defs><filter id="filter0_d_1701_1352" x="3" y="1.5" width="19" height="22" filterUnits="userSpaceOnUse" color-interpolation-filters="sRGB"><feFlood flood-opacity="0" result="BackgroundImageFix"/><feColorMatrix in="SourceAlpha" type="matrix" values="0 0 0 0 0 0 0 0 0 0 0 0 0 0 0 0 0 0 127 0" result="hardAlpha"/><feOffset dy="0.5"/><feGaussianBlur stdDeviation="1"/><feComposite in2="hardAlpha" operator="out"/><feColorMatrix type="matrix" values="0 0 0 0 0 0 0 0 0 0 0 0 0 0 0 0 0 0 0.25 0"/><feBlend mode="normal" in2="BackgroundImageFix" result="effect1_dropShadow_1701_1352"/><feBlend mode="normal" in="SourceGraphic" in2="effect1_dropShadow_1701_1352" result="shape"/></filter></defs></svg>