<svg xmlns="http://www.w3.org/2000/svg" fill="none" viewBox="5 3 14 18"><g id="letter-e"><g id="outline" filter="url(#filter0_d_1701_1158)"><path d="M19 4C19 3.44772 18.5523 3 18 3H6C5.44772 3 5 3.44772 5 4V20C5 20.5523 5.44772 21 6 21H18C18.5523 21 19 20.5523 19 20V15C19 14.4477 18.5523 14 18 14H17C16.4477 14 16 13.5523 16 13V11C16 10.4477 16.4477 10 17 10H18C18.5523 10 19 9.55228 19 9V4Z" fill="white"/></g><path id="icon" d="M17 5H7V19H17V16H10V14H14V11H10V8H17V5Z" fill="#1452CC"/></g><defs><filter id="filter0_d_1701_1158" x="3" y="1.5" width="18" height="22" filterUnits="userSpaceOnUse" color-interpolation-filters="sRGB"><feFlood flood-opacity="0" result="BackgroundImageFix"/><feColorMatrix in="SourceAlpha" type="matrix" values="0 0 0 0 0 0 0 0 0 0 0 0 0 0 0 0 0 0 127 0" result="hardAlpha"/><feOffset dy="0.5"/><feGaussianBlur stdDeviation="1"/><feComposite in2="hardAlpha" operator="out"/><feColorMatrix type="matrix" values="0 0 0 0 0 0 0 0 0 0 0 0 0 0 0 0 0 0 0.25 0"/><feBlend mode="normal" in2="BackgroundImageFix" result="effect1_dropShadow_1701_1158"/><feBlend mode="normal" in="SourceGraphic" in2="effect1_dropShadow_1701_1158" result="shape"/></filter></defs></svg>