<svg xmlns="http://www.w3.org/2000/svg" fill="none" viewBox="4 3 16 18"><g id="letter-t"><g id="outline" filter="url(#filter0_d_1701_1385)"><path d="M20 4C20 3.44772 19.5523 3 19 3H5C4.44772 3 4 3.44772 4 4V9C4 9.55228 4.44772 10 5 10H7.5C8.05228 10 8.5 10.4477 8.5 11V20C8.5 20.5523 8.94772 21 9.5 21H14.5C15.0523 21 15.5 20.5523 15.5 20V11C15.5 10.4477 15.9477 10 16.5 10H19C19.5523 10 20 9.55228 20 9V4Z" fill="white"/></g><path id="icon" d="M18 5H6V8H10.5V19H13.5V8H18V5Z" fill="#1452CC"/></g><defs><filter id="filter0_d_1701_1385" x="2" y="1.5" width="20" height="22" filterUnits="userSpaceOnUse" color-interpolation-filters="sRGB"><feFlood flood-opacity="0" result="BackgroundImageFix"/><feColorMatrix in="SourceAlpha" type="matrix" values="0 0 0 0 0 0 0 0 0 0 0 0 0 0 0 0 0 0 127 0" result="hardAlpha"/><feOffset dy="0.5"/><feGaussianBlur stdDeviation="1"/><feComposite in2="hardAlpha" operator="out"/><feColorMatrix type="matrix" values="0 0 0 0 0 0 0 0 0 0 0 0 0 0 0 0 0 0 0.25 0"/><feBlend mode="normal" in2="BackgroundImageFix" result="effect1_dropShadow_1701_1385"/><feBlend mode="normal" in="SourceGraphic" in2="effect1_dropShadow_1701_1385" result="shape"/></filter></defs></svg>