<svg xmlns="http://www.w3.org/2000/svg" fill="none" viewBox="2.64 3 20.73 18"><g id="letter-y"><g id="outline" filter="url(#filter0_d_1701_1327)"><path d="M10.3672 3.4453C10.1818 3.1671 9.86954 3 9.53518 3H3.63782C2.8404 3 2.36375 3.88761 2.8042 4.55234L9.33363 14.4068C9.44215 14.5705 9.50002 14.7626 9.50002 14.9591V20C9.50002 20.5523 9.94773 21 10.5 21H15.5C16.0523 21 16.5 20.5523 16.5 20V14.9592C16.5 14.7628 16.5579 14.5707 16.6664 14.4069L23.1958 4.55234C23.6362 3.8876 23.1596 3 22.3622 3H16.4648C16.1305 3 15.8182 3.1671 15.6328 3.4453L13.8321 6.14637C13.4362 6.74011 12.5638 6.74011 12.1679 6.14637L10.3672 3.4453Z" fill="white"/></g><path id="icon" d="M5.5 5L11.5 14.0554V19H14.5V14.0556L20.5 5H17L13 11L9 5H5.5Z" fill="#1452CC"/></g><defs><filter id="filter0_d_1701_1327" x="0.636169" y="1.5" width="24.7277" height="22" filterUnits="userSpaceOnUse" color-interpolation-filters="sRGB"><feFlood flood-opacity="0" result="BackgroundImageFix"/><feColorMatrix in="SourceAlpha" type="matrix" values="0 0 0 0 0 0 0 0 0 0 0 0 0 0 0 0 0 0 127 0" result="hardAlpha"/><feOffset dy="0.5"/><feGaussianBlur stdDeviation="1"/><feComposite in2="hardAlpha" operator="out"/><feColorMatrix type="matrix" values="0 0 0 0 0 0 0 0 0 0 0 0 0 0 0 0 0 0 0.25 0"/><feBlend mode="normal" in2="BackgroundImageFix" result="effect1_dropShadow_1701_1327"/><feBlend mode="normal" in="SourceGraphic" in2="effect1_dropShadow_1701_1327" result="shape"/></filter></defs></svg>